<svg width="22" height="22" viewBox="0 0 22 22" fill="none" xmlns="http://www.w3.org/2000/svg">
<path d="M7.99956 21L7.74893 17.4911C7.61418 15.6046 9.10828 14 10.9996 14C12.8909 14 14.3849 15.6046 14.2502 17.4911L13.9996 21" stroke="#2A353D" stroke-width="1.5"/>
<path d="M1.35164 12.2135C0.998615 9.91624 0.822105 8.76763 1.25641 7.74938C1.69071 6.73112 2.65427 6.03443 4.58138 4.64106L6.02123 3.6C8.41853 1.86667 9.61718 1 11.0002 1C12.3833 1 13.582 1.86667 15.9793 3.6L17.4191 4.64106C19.3462 6.03443 20.3098 6.73112 20.7441 7.74938C21.1784 8.76763 21.0019 9.91624 20.6489 12.2135L20.3478 14.1724C19.8474 17.4289 19.5972 19.0572 18.4292 20.0286C17.2613 21 15.5539 21 12.1391 21H9.86143C6.44658 21 4.73915 21 3.57124 20.0286C2.40333 19.0572 2.15311 17.4289 1.65267 14.1724L1.35164 12.2135Z" stroke="#2A353D" stroke-width="1.5" stroke-linejoin="round"/>
</svg>
